<svg xmlns="http://www.w3.org/2000/svg" width="30.18" height="55.821" viewBox="0 0 30.18 55.821">
  <g id="logo-de-facebook" transform="translate(-22.077)">
    <path id="Trazado_65" data-name="Trazado 65" d="M51.12.012,43.881,0C35.749,0,30.493,5.392,30.493,13.738v6.334H23.215a1.138,1.138,0,0,0-1.138,1.139v9.177a1.138,1.138,0,0,0,1.138,1.138h7.278V54.683a1.138,1.138,0,0,0,1.138,1.138h9.5a1.138,1.138,0,0,0,1.138-1.138V31.526h8.51a1.138,1.138,0,0,0,1.138-1.138l0-9.177a1.139,1.139,0,0,0-1.139-1.139H42.266V14.7c0-2.581.615-3.891,3.977-3.891l4.876,0a1.138,1.138,0,0,0,1.138-1.138V1.15A1.139,1.139,0,0,0,51.12.012Z" fill="#707070"/>
  </g>
</svg>
