<svg xmlns="http://www.w3.org/2000/svg" width="52.107" height="50.237" viewBox="0 0 52.107 50.237">
  <path id="FanCentro" d="M52.1,42.441l-.612-1.609-1.1-2.722-4.9-12.5L44.993,24.5l-.123-.372-.491-1.116-2.084-5.321L35.308,0H16.8L9.321,18.807,7.728,22.892l-.491,1.116-.123.372L6.623,25.5l-.744,1.861L.607,40.72,0,42.33l14.342-2.977L11.773,50.237,25.992,39.844,40.211,50.237,37.636,39.349ZM26.727,36.625l-.612-.495-.612.495-9.311,6.806.612-1.98,3.187-9.9-9.94-7.3H22.31l3.8-11.756,3.8,11.756H42.167l-9.928,7.3,3.187,9.9.612,1.98Z" transform="translate(0.005)" fill="#fff"/>
</svg>
