<svg xmlns="http://www.w3.org/2000/svg" width="48.617" height="50.887" viewBox="0 0 48.617 50.887">
  <g id="Gumroad-01" transform="translate(-11.1 0.5)">
    <path id="Trazado_64" data-name="Trazado 64" d="M43.364,31.326a2.114,2.114,0,1,1,0,4.229A2.114,2.114,0,0,1,43.364,31.326ZM54.8,2.309a2.114,2.114,0,0,1,0,4.229A2.114,2.114,0,1,1,54.8,2.309ZM17.368,6.46h33.5a4.429,4.429,0,1,0-.166-3.7H17.368A5.621,5.621,0,0,0,11.6,8.35V44.012a5.906,5.906,0,0,0,5.768,5.875H53.03a5.782,5.782,0,0,0,5.69-5.875V22.858a5.733,5.733,0,0,0-5.69-5.768H31.876a5.951,5.951,0,0,0-5.963,5.768v6.655a5.787,5.787,0,0,0,5.963,5.593h7.386a4.423,4.423,0,1,0,.166-3.693H31.867a2.112,2.112,0,0,1-2.261-1.9V22.868a2.259,2.259,0,0,1,2.261-2.075H53.02a2.018,2.018,0,0,1,2,2.075V44.031a2.119,2.119,0,0,1-2,2.173H17.358a2.19,2.19,0,0,1-2.075-2.173V8.37a1.975,1.975,0,0,1,2.085-1.91Z" fill="#fff" stroke="#fff" stroke-width="1"/>
  </g>
</svg>
