<svg xmlns="http://www.w3.org/2000/svg" width="53.734" height="53.734" viewBox="0 0 53.734 53.734">
  <path id="instagram" d="M26.867,4.843c7.174,0,8.024.027,10.859.157,7.281.331,10.682,3.786,11.013,11.013.13,2.832.154,3.683.154,10.857s-.027,8.024-.154,10.857c-.334,7.221-3.726,10.682-11.013,11.013-2.834.13-3.681.157-10.859.157s-8.024-.027-10.857-.157C8.712,48.406,5.329,44.935,5,37.724c-.13-2.832-.157-3.681-.157-10.857S4.87,18.845,5,16.011C5.331,8.786,8.723,5.329,16.011,5c2.834-.128,3.683-.154,10.857-.154Zm0-4.843c-7.3,0-8.21.031-11.076.161C6.034.609.611,6.023.163,15.789.031,18.657,0,19.571,0,26.867S.031,35.08.161,37.946C.609,47.7,6.023,53.126,15.789,53.573c2.868.13,3.782.161,11.078.161s8.212-.031,11.078-.161c9.748-.448,15.184-5.862,15.626-15.628.132-2.866.163-3.782.163-11.078s-.031-8.21-.161-11.076C53.134,6.043,47.714.611,37.948.163,35.08.031,34.164,0,26.867,0Zm0,13.071a13.8,13.8,0,1,0,13.8,13.8A13.8,13.8,0,0,0,26.867,13.071Zm0,22.752a8.956,8.956,0,1,1,8.956-8.956A8.955,8.955,0,0,1,26.867,35.823ZM41.21,9.3a3.224,3.224,0,1,0,3.222,3.224A3.225,3.225,0,0,0,41.21,9.3Z" fill="#707070"/>
</svg>
