<svg xmlns="http://www.w3.org/2000/svg" width="46.826" height="62.308" viewBox="0 0 46.826 62.308">
  <g id="MV_ALL" data-name="MV ALL" transform="translate(-53.702 0.006)">
    <path id="Path_24" data-name="Path 24" d="M290,167.073a14.08,14.08,0,0,1,4.259-5.55,11.329,11.329,0,0,1,14.484.892,15.023,15.023,0,0,1,3.1,17.489,35.076,35.076,0,0,1-7.069,9.388,75.28,75.28,0,0,1-14.248,10.822,1.081,1.081,0,0,1-.917.072,71.611,71.611,0,0,1-16.63-13.213,25.071,25.071,0,0,1-5.928-9.961,14.767,14.767,0,0,1,4.666-14.983,11.231,11.231,0,0,1,17.132,3.02C289.239,165.669,289.579,166.331,290,167.073Zm4.181,20.5c-.041-.223-.06-.4-.1-.563-.627-2.358-1.207-4.729-1.9-7.07a1.476,1.476,0,0,1,.451-1.753,3.391,3.391,0,0,0,.57-4.013,3.69,3.69,0,0,0-3.405-2,3.58,3.58,0,0,0-3.2,2.438,3.382,3.382,0,0,0,1.084,3.917.926.926,0,0,1,.314,1.138c-.671,2.377-1.274,4.773-1.9,7.163a6.455,6.455,0,0,0-.107.752Z" transform="translate(-212.855 -137.953)" fill="#707070"/>
    <path id="Path_25" data-name="Path 25" d="M344.98,7.055c1.04.978,2.051,2.02,3.161,2.943.912.758,1.391.677,2-.331.851-1.41,1.609-2.89,2.35-4.369.1-.194-.094-.627-.279-.851a2.636,2.636,0,0,1,.27-3.867,2.614,2.614,0,0,1,3.678.381c.031.038.06.077.088.116a2.575,2.575,0,0,1-.219,3.327.8.8,0,0,0-.185,1.139c.783,1.387,1.493,2.821,2.33,4.176.577.94.964.954,1.88.321a8.59,8.59,0,0,0,1.164-.961c.693-.686,1.351-1.41,2.012-2.1-1.282-1.744-1.048-3.521.522-4.356a2.617,2.617,0,0,1,3.519,1.056,2.546,2.546,0,0,1-1.1,3.549,1.6,1.6,0,0,0-1,1.282c-.6,2.459-1.254,4.9-1.858,7.365a1.254,1.254,0,0,1-1.382,1.073q-7.779,0-15.557.016a1.253,1.253,0,0,1-1.39-1.066c-.627-2.507-1.312-5.014-1.924-7.521a1.365,1.365,0,0,0-.873-1.073,2.593,2.593,0,0,1-1.462-2.938,2.648,2.648,0,0,1,2.233-1.992,2.549,2.549,0,0,1,2.786,1.708,2.937,2.937,0,0,1-.76,2.977Z" transform="translate(-277.029 0)" fill="#707070"/>
  </g>
</svg>
