<svg xmlns="http://www.w3.org/2000/svg" width="33.728" height="39.509" viewBox="0 0 33.728 39.509">
  <g id="Grupo_72" data-name="Grupo 72" transform="translate(456.758 254.616)">
    <path id="Trazado_30" data-name="Trazado 30" d="M-410.738-38.889v-3.036a13.488,13.488,0,0,0-4.091-9.664,13.938,13.938,0,0,0-9.817-4.027h-2.5a13.939,13.939,0,0,0-9.809,4.027,13.45,13.45,0,0,0-4.083,9.664v3.036l-1.724,3.109V-31.3a15.013,15.013,0,0,0,4.542,10.735,15.6,15.6,0,0,0,10.944,4.462h2.778a15.567,15.567,0,0,0,10.912-4.462A14.988,14.988,0,0,0-409.03-31.3v-4.478Zm-13.53,13.739v3.584a1.556,1.556,0,0,1-.717,1.321h-.677a.808.808,0,0,1-.241,0h-.161a.972.972,0,0,1-.2,0h-.306a1.61,1.61,0,0,1-.741-1.345v-3.56a4.269,4.269,0,0,1-2.434-5.524A4.269,4.269,0,0,1-425.7-33.4h.088a4.269,4.269,0,0,1,4.334,4.2A4.268,4.268,0,0,1-424-25.15Zm7.32-13.642h-17.886v-3.133a7.467,7.467,0,0,1,2.263-5.34,7.748,7.748,0,0,1,5.428-2.247h2.5a7.741,7.741,0,0,1,5.428,2.247,7.5,7.5,0,0,1,2.263,5.34Z" transform="translate(-14 -199)" fill="#fff"/>
  </g>
</svg>
