<svg xmlns="http://www.w3.org/2000/svg" width="49.806" height="53.475" viewBox="0 0 49.806 53.475">
  <g id="forma-de-palmera-negra" transform="translate(-10.09 0.001)">
    <path id="Trazado_63" data-name="Trazado 63" d="M11.08,15.653c-1.9,1.836-.908,3.062,1.63,2.336,6.021-1.722,16.406-4.127,21.133-1.866,0,0-13.825,10.956-11.741,32.621.252,2.629,2.223,4.73,4.121,4.73s3.161-2.129,3.155-4.771c-.012-5.97,1-17.1,7.055-30.788,0,0,4.5,5.92,5.859,12.38.542,2.584,1.55,2.946,2.252.4a13.906,13.906,0,0,0-1.237-10.69s8.6,4.663,14.2,10.673c1.8,1.931,2.872,1.606,2.17-.939C58.2,24.394,53.848,16.1,41.013,13.63a25.388,25.388,0,0,1,10.935-2.17c2.638.1,3.506-1.133,1.156-2.339-2.859-1.469-7.742-2.453-15.677-.171,0,0-3.823-9.322-16.175-8.94-2.638.082-2.753,1.377-.381,2.533,4.1,2,9.759,5.215,10.878,8.2C31.752,10.744,19.021,7.967,11.08,15.653Z" transform="translate(0)" fill="#fff"/>
  </g>
</svg>
