<svg xmlns="http://www.w3.org/2000/svg" width="58.724" height="33.051" viewBox="0 0 58.724 33.051">
  <g id="Grupo_99" data-name="Grupo 99" transform="translate(1153.315 -1809.47)">
    <path id="path3155" d="M32.317,29.48c-3.726-1.659-8.619-2.063-8.708-6.552a4.048,4.048,0,0,1,4.219-4.088,3.621,3.621,0,0,1,3.547,2.7,2.622,2.622,0,0,1-.809,2.74.959.959,0,0,0,.09,1.256,1.078,1.078,0,0,0,1.257.177l6.1-4.352a.927.927,0,0,0,.135-1.3.958.958,0,0,0-1.257-.27c-1.346.629-3.456.943-4.443,0A8.17,8.17,0,0,0,25.853,17a7.149,7.149,0,0,0-7.271,6.958c0,5.026,4.13,6.866,7.989,8.843,3.055,1.569,7.407,3.007,7.318,7.587,0,3.859-2.827,6.464-5.655,6.464a6.191,6.191,0,0,1-6.285-5.028,3.5,3.5,0,0,0,2.378-3.231A3.374,3.374,0,0,0,21.05,35c-1.931-.132-3.951,1.437-4.041,4.671,0,5.206,6.511,9.381,11.672,9.381a10.521,10.521,0,0,0,10.6-9.7c.315-4.085-2.38-7.811-6.959-9.877Zm0,0" transform="translate(-1169.823 1792.967)" fill="#fff" stroke="#fff" stroke-width="1"/>
    <path id="path3157" d="M203.683,34.644a1.207,1.207,0,0,0-1.167-.044c-2.557,1.619-5.477,4.266-8.619,6.465-.313.315-.584.809-.313,1.212.671,1.3,1.8-.4,2.288,2.379.539,3.142-5.027,3.412-7.5,2.74-6.731-1.887-10.19-7.138-10.19-12.8a12.577,12.577,0,0,1,12.3-12.389c2.108,0,6.778,1.348,4.174,4a1.035,1.035,0,0,0-.09,1.391,1.107,1.107,0,0,0,1.347.134l6.013-4.041a.939.939,0,1,0-1.028-1.568c-3.1,1.93-5.657-2.111-12.39-2.2-8.441-.091-15.937,5.923-15.937,14.677.09,7.9,5.747,16.161,15.937,16.161,5.073,0,6.24-2.423,8.214-2.379.988.089,1.482,1.212,2.067,1.93a1.534,1.534,0,0,0,1.569.4,2.123,2.123,0,0,0,1.256-1.752c.313-3.006-.941-6.147-.4-10.1.224-1.437,1.571-1.748,2.514-2.738a1.151,1.151,0,0,0-.046-1.483Zm0,0" transform="translate(-1299.128 1790.541)" fill="#fff" stroke="#fff" stroke-width="1"/>
  </g>
</svg>
