<svg xmlns="http://www.w3.org/2000/svg" width="46.686" height="53.734" viewBox="0 0 46.686 53.734">
  <path id="tiktok" d="M26.628.045C29.558,0,32.472.027,35.382,0A13.946,13.946,0,0,0,39.3,9.342c2.5,2.484,6.045,3.621,9.491,4.005v9.016a23.785,23.785,0,0,1-9.4-2.168,27.211,27.211,0,0,1-3.629-2.082c-.015,6.543.027,13.077-.042,19.592a17.044,17.044,0,0,1-3.028,8.825A16.67,16.67,0,0,1,19.456,53.71a16.292,16.292,0,0,1-9.13-2.3A16.872,16.872,0,0,1,2.157,38.624c-.054-1.12-.072-2.238-.027-3.332A16.872,16.872,0,0,1,21.677,20.326c.045,3.317-.087,6.63-.087,9.946a7.7,7.7,0,0,0-9.814,4.749,8.9,8.9,0,0,0-.3,3.6A7.643,7.643,0,0,0,25.509,41.45a5.28,5.28,0,0,0,.919-2.38c.22-4.005.133-7.993.16-12,.018-9.026-.027-18.027.042-27.025Z" transform="translate(-2.105)" fill="#707070"/>
</svg>
