<svg xmlns="http://www.w3.org/2000/svg" width="46.725" height="36.993" viewBox="0 0 46.725 36.993">
  <path id="twitter" d="M46.725,6.627A19.535,19.535,0,0,1,41.219,8.1a9.4,9.4,0,0,0,4.215-5.167A19.514,19.514,0,0,1,39.346,5.2a9.69,9.69,0,0,0-7-2.949A9.41,9.41,0,0,0,23.01,13.714,27.459,27.459,0,0,1,3.253,3.957,9.207,9.207,0,0,0,6.218,16.426a9.738,9.738,0,0,1-4.34-1.168,9.4,9.4,0,0,0,7.688,9.275,9.855,9.855,0,0,1-4.33.159,9.565,9.565,0,0,0,8.956,6.485A19.642,19.642,0,0,1,0,35.046a27.661,27.661,0,0,0,14.7,4.2A26.711,26.711,0,0,0,41.942,11.462a19.246,19.246,0,0,0,4.783-4.835Z" transform="translate(0 -2.248)" fill="#fff"/>
</svg>
