<svg xmlns="http://www.w3.org/2000/svg" width="52.38" height="30.775" viewBox="0 0 52.38 30.775">
  <g id="video-camera" transform="translate(0 -96.512)">
    <g id="Grupo_102" data-name="Grupo 102" transform="translate(0 96.512)">
      <g id="Grupo_101" data-name="Grupo 101" transform="translate(0 0)">
        <path id="Trazado_61" data-name="Trazado 61" d="M29.628,96.512H5.731A5.748,5.748,0,0,0,0,102.243v19.313a5.748,5.748,0,0,0,5.731,5.731h23.9a5.748,5.748,0,0,0,5.731-5.731V102.243A5.711,5.711,0,0,0,29.628,96.512Z" transform="translate(0 -96.512)" fill="#fff"/>
      </g>
    </g>
    <g id="Grupo_104" data-name="Grupo 104" transform="translate(38.225 99.572)">
      <g id="Grupo_103" data-name="Grupo 103" transform="translate(0 0)">
        <path id="Trazado_62" data-name="Trazado 62" d="M351.418,123.94a2.919,2.919,0,0,0-.974.4L341.5,129.5v13.3l9,5.158a3.407,3.407,0,0,0,4.7-1.261,3.5,3.5,0,0,0,.458-1.719V127.263A3.449,3.449,0,0,0,351.418,123.94Z" transform="translate(-341.504 -123.847)" fill="#fff"/>
      </g>
    </g>
  </g>
</svg>
