<svg xmlns="http://www.w3.org/2000/svg" width="52.107" height="36.484" viewBox="0 0 52.107 36.484">
  <g id="g5" transform="translate(0 0)">
    <path id="Sustracción_1" data-name="Sustracción 1" d="M26.054,36.484c-.163,0-16.315-.013-20.388-1.116a6.528,6.528,0,0,1-4.593-4.593C.012,26.787,0,18.327,0,18.242S.012,9.74,1.073,5.709A6.68,6.68,0,0,1,5.666,1.073C9.7.012,25.891,0,26.054,0S42.411.013,46.442,1.116a6.528,6.528,0,0,1,4.592,4.592c1.1,4.017,1.073,12.491,1.073,12.576s-.012,8.5-1.073,12.533a6.529,6.529,0,0,1-4.592,4.592C42.411,36.471,26.217,36.484,26.054,36.484ZM20.86,10.43V26.054l13.564-7.812L20.86,10.43Z" transform="translate(0 0)" fill="#fff"/>
  </g>
</svg>
