<svg id="Layer_2" data-name="Layer 2" xmlns="http://www.w3.org/2000/svg" width="62.146" height="62.146" viewBox="0 0 62.146 62.146">
  <g id="Layer_1" data-name="Layer 1">
    <path id="Trazado_69" data-name="Trazado 69" d="M19,26.114,31.073,14.045,43.148,26.12,50.171,19.1,31.073,0,11.982,19.091,19,26.114M0,31.073l7.023-7.024,7.022,7.022L7.022,38.094Zm19,4.96L31.073,48.1,43.148,36.027l7.026,7.019,0,0-19.1,19.1L11.982,43.055l-.01-.01L19,36.032m29.1-4.956,7.023-7.023,7.022,7.022L55.124,38.1Z" fill="#fff"/>
    <path id="Trazado_70" data-name="Trazado 70" d="M977.442,970.316h0l-7.125-7.126-5.267,5.265h0l-.6.605-1.248,1.248-.01.01.01.01,7.12,7.121,7.126-7.126,0,0-.006,0" transform="translate(-939.247 -939.247)" fill="#fff"/>
  </g>
</svg>
