<svg xmlns="http://www.w3.org/2000/svg" width="44.937" height="62.146" viewBox="0 0 44.937 62.146">
  <g id="bitcoin-svg" transform="translate(-11.848 -5.89)">
    <g id="Grupo_108" data-name="Grupo 108" transform="translate(11.848 5.89)">
      <path id="Trazado_68" data-name="Trazado 68" d="M48.471,34.655c3.326-1.693,5.406-4.674,4.92-9.64-.655-6.787-6.52-9.063-13.924-9.711V5.89H33.729l0,9.167c-1.509,0-3.048.03-4.58.06V5.891H23.415V15.3c-1.242.025-2.462.049-3.653.049v-.028l-7.913,0V21.44s4.236-.08,4.167,0a2.961,2.961,0,0,1,3.3,2.513l0,10.725V49.739a2.027,2.027,0,0,1-2.157,1.9c.074.065-4.173,0-4.173,0L11.849,58.48h7.464c1.391,0,2.757.023,4.1.034l0,9.521,5.73,0,0-9.421c1.576.032,3.1.046,4.585.044l0,9.377h5.737l0-9.5C49.11,57.978,55.861,55.551,56.7,46.5,57.377,39.219,53.945,35.968,48.471,34.655Zm-19.186-12.8c3.235,0,13.411-1.029,13.412,5.723,0,6.474-10.174,5.718-13.412,5.718Zm0,29.831,0-12.615c3.887,0,16.08-1.118,16.081,6.3C45.368,52.492,33.172,51.682,29.282,51.685Z" transform="translate(-11.848 -5.89)" fill="#707070"/>
    </g>
  </g>
</svg>
